HIERARCHY
ROOT Hips
{
	OFFSET 0.000000 1.471914 24.280096
	CHANNELS 6 Xposition Yposition Zposition Xrotation Yrotation Zrotation
	JOINT Spine
	{
		OFFSET 0.000000 0.900110 1.860670
		CHANNELS 6 Xposition Yposition Zposition Xrotation Yrotation Zrotation
		JOINT Spine1
		{
			OFFSET 0.000000 0.400320 2.270309
			CHANNELS 6 Xposition Yposition Zposition Xrotation Yrotation Zrotation
			JOINT Spine2
			{
				OFFSET 0.000000 0.200920 2.296560
				CHANNELS 6 Xposition Yposition Zposition Xrotation Yrotation Zrotation
				JOINT Spine3
				{
					OFFSET 0.000000 0.000000 2.305330
					CHANNELS 6 Xposition Yposition Zposition Xrotation Yrotation Zrotation
					JOINT Neck
					{
						OFFSET 0.000000 -0.864490 6.051487
						CHANNELS 6 Xposition Yposition Zposition Xrotation Yrotation Zrotation
						JOINT Head
						{
							OFFSET 0.000000 -0.550429 3.121674
							CHANNELS 6 Xposition Yposition Zposition Xrotation Yrotation Zrotation
							End Site
							{
								OFFSET 0.000000 0.000000 3.731750
							}
						}
					}
					JOINT RightShoulder
					{
						OFFSET -0.788280 -1.313800 4.256718
						CHANNELS 6 Xposition Yposition Zposition Xrotation Yrotation Zrotation
						JOINT RightArm
						{
							OFFSET -3.915130 0.000000 0.000000
							CHANNELS 6 Xposition Yposition Zposition Xrotation Yrotation Zrotation
							JOINT RightForeArm
							{
								OFFSET -6.914910 0.000000 0.000000
								CHANNELS 6 Xposition Yposition Zposition Xrotation Yrotation Zrotation
								JOINT RightHand
								{
									OFFSET -6.096219 0.000000 0.000000
									CHANNELS 6 Xposition Yposition Zposition Xrotation Yrotation Zrotation
									JOINT RightHandEnd
									{
										OFFSET -1.749950 0.000000 0.000000
										CHANNELS 6 Xposition Yposition Zposition Xrotation Yrotation Zrotation
										End Site
										{
											OFFSET -1.749950 0.000000 0.000000
										}
									}
									JOINT RightHandThumb1
									{
										OFFSET -0.699980 -1.166630 -0.466648
										CHANNELS 6 Xposition Yposition Zposition Xrotation Yrotation Zrotation
										End Site
										{
											OFFSET -1.690319 -0.452920 0.000000
										}
									}
								}
							}
						}
					}
					JOINT LeftShoulder
					{
						OFFSET 0.788280 -1.313800 4.256718
						CHANNELS 6 Xposition Yposition Zposition Xrotation Yrotation Zrotation
						JOINT LeftArm
						{
							OFFSET 3.915130 0.000000 0.000000
							CHANNELS 6 Xposition Yposition Zposition Xrotation Yrotation Zrotation
							JOINT LeftForeArm
							{
								OFFSET 6.914910 0.000000 0.000000
								CHANNELS 6 Xposition Yposition Zposition Xrotation Yrotation Zrotation
								JOINT LeftHand
								{
									OFFSET 6.096219 0.000000 0.000000
									CHANNELS 6 Xposition Yposition Zposition Xrotation Yrotation Zrotation
									JOINT LeftHandEnd
									{
										OFFSET 1.749950 0.000000 0.000000
										CHANNELS 6 Xposition Yposition Zposition Xrotation Yrotation Zrotation
										End Site
										{
											OFFSET 1.749950 0.000000 0.000000
										}
									}
									JOINT LeftHandThumb1
									{
										OFFSET 0.699980 -1.166630 -0.466648
										CHANNELS 6 Xposition Yposition Zposition Xrotation Yrotation Zrotation
										End Site
										{
											OFFSET 1.690319 -0.452920 0.000000
										}
									}
								}
							}
						}
					}
				}
			}
		}
	}
	JOINT RightUpLeg
	{
		OFFSET -2.338570 -0.252550 -0.551512
		CHANNELS 6 Xposition Yposition Zposition Xrotation Yrotation Zrotation
		JOINT RightLeg
		{
			OFFSET 0.000000 0.000000 -10.744959
			CHANNELS 6 Xposition Yposition Zposition Xrotation Yrotation Zrotation
			JOINT RightFoot
			{
				OFFSET 0.000000 -0.000001 -10.930849
				CHANNELS 6 Xposition Yposition Zposition Xrotation Yrotation Zrotation
				JOINT RightToeBase
				{
					OFFSET 0.000000 -4.087269 -1.487650
					CHANNELS 6 Xposition Yposition Zposition Xrotation Yrotation Zrotation
					End Site
					{
						OFFSET 0.000000 -1.891870 0.000000
					}
				}
			}
		}
	}
	JOINT LeftUpLeg
	{
		OFFSET 2.338570 -0.252550 -0.551512
		CHANNELS 6 Xposition Yposition Zposition Xrotation Yrotation Zrotation
		JOINT LeftLeg
		{
			OFFSET 0.000000 0.000000 -10.744959
			CHANNELS 6 Xposition Yposition Zposition Xrotation Yrotation Zrotation
			JOINT LeftFoot
			{
				OFFSET 0.000000 -0.000001 -10.930849
				CHANNELS 6 Xposition Yposition Zposition Xrotation Yrotation Zrotation
				JOINT LeftToeBase
				{
					OFFSET 0.000000 -4.087269 -1.487650
					CHANNELS 6 Xposition Yposition Zposition Xrotation Yrotation Zrotation
					End Site
					{
						OFFSET 0.000000 -1.891870 0.000000
					}
				}
			}
		}
	}
}
MOTION
Frames: 7
Frame Time: 0.041667
0.000139 26.530167 40.545135 -2.403178 -1.975383 43.299335 -0.000002 0.900099 1.860689 28.669668 10.586120 1.348077 -0.000010 0.400316 2.270315 -0.000003 -0.000002 -0.000004 0.000015 0.200937 2.296564 -0.000002 -0.000000 0.000001 0.000010 -0.000017 2.305318 -0.000016 0.000004 -3.814331 -0.000007 -0.864454 6.051500 -1.150741 -8.670859 149.164966 -0.000003 -0.550422 3.121696 0.000002 -0.000001 -0.000001 -0.788282 -1.313763 4.256758 -99.062564 36.392546 -55.062892 -3.915119 -0.000003 0.000004 -0.000000 -0.000002 -0.000003 -6.914886 0.000005 0.000001 0.000014 -0.000010 -36.807002 -6.096215 0.000006 0.000002 -0.000078 -0.000090 0.000018 -1.749945 0.000008 -0.000008 -0.000001 -0.000001 -0.000005 -0.699987 -1.166632 -0.466625 -0.000005 0.000000 -0.000009 0.788264 -1.313804 4.256741 -131.550673 -46.007314 38.360166 3.915167 -0.000016 0.000008 0.000001 0.000000 -0.000003 6.914905 0.000001 -0.000019 0.000013 0.000004 37.424977 6.096225 0.000004 -0.000001 -0.000060 0.000079 -0.000030 1.749930 0.000017 -0.000003 -0.000004 -0.000002 -0.000002 0.699984 -1.166625 -0.466664 0.000004 -0.000000 -0.000009 -2.338580 -0.252551 -0.551497 2.062732 -2.594394 0.097151 0.000005 -0.000003 -10.744963 7.959140 1.172342 0.021777 0.000009 0.000017 -10.930861 -0.000012 -0.000002 -0.000005 0.000007 -4.087267 -1.487646 0.000002 -0.000000 0.000006 2.338568 -0.252552 -0.551445 0.799106 -8.646630 0.040093 -0.000010 -0.000012 -10.744939 8.311473 2.759793 -0.855889 0.000000 0.000006 -10.930855 -0.000003 -0.000002 0.000001 0.000003 -4.087241 -1.487649 -0.000002 -0.000000 0.000003 
0.000138 26.530161 40.545128 -2.218438 -1.794864 44.541996 0.000002 0.900100 1.860691 29.017666 10.439587 1.423775 -0.000013 0.400318 2.270317 -0.000005 0.000002 0.000004 0.000012 0.200939 2.296572 -0.000000 0.000001 -0.000001 0.000013 -0.000016 2.305322 -0.000018 -0.000003 -3.367249 -0.000005 -0.864453 6.051505 -0.553745 -9.283752 150.216091 -0.000004 -0.550420 3.121685 0.000002 -0.000000 -0.000002 -0.788282 -1.313759 4.256767 -96.995537 35.212245 -55.181177 -3.915123 -0.000003 0.000004 -0.000001 -0.000003 -0.000005 -6.914882 0.000002 -0.000004 0.000014 -0.000009 -35.628951 -6.096208 0.000003 0.000011 -0.000075 -0.000091 0.000016 -1.749947 0.000004 -0.000004 0.000001 -0.000000 0.000003 -0.699992 -1.166634 -0.466625 -0.000002 0.000001 0.000001 0.788268 -1.313805 4.256741 -127.965834 -45.848509 40.927358 3.915167 -0.000009 0.000008 0.000001 0.000001 -0.000004 6.914902 -0.000003 -0.000019 0.000012 0.000004 37.592200 6.096229 0.000004 -0.000002 -0.000061 0.000079 -0.000031 1.749939 0.000015 0.000001 -0.000005 -0.000001 -0.000000 0.699981 -1.166622 -0.466668 0.000004 0.000002 -0.000011 -2.338576 -0.252551 -0.551498 1.564986 -2.099858 0.076388 0.000005 -0.000002 -10.744969 8.023569 0.957028 0.108228 0.000008 0.000017 -10.930862 -0.000014 -0.000003 -0.000003 0.000006 -4.087267 -1.487645 0.000002 -0.000000 0.000001 2.338572 -0.252553 -0.551449 0.858544 -8.224933 0.044954 -0.000006 -0.000012 -10.744941 8.522647 3.251704 -0.796424 0.000002 0.000005 -10.930853 -0.000003 -0.000005 0.000002 0.000001 -4.087244 -1.487651 -0.000005 -0.000000 0.000004 
0.000166 26.530132 40.545135 -1.843527 -1.073208 45.525233 0.000002 0.900098 1.860693 28.144189 9.879667 1.484469 -0.000010 0.400319 2.270309 -0.000004 -0.000001 -0.000001 0.000013 0.200935 2.296573 -0.000000 0.000002 0.000001 0.000013 -0.000010 2.305322 -0.000014 0.000005 -2.524421 -0.000004 -0.864447 6.051504 0.693182 -8.689693 152.142833 0.000000 -0.550420 3.121696 0.000002 -0.000001 0.000002 -0.788284 -1.313749 4.256766 -94.365183 33.997137 -54.564486 -3.915125 0.000000 0.000007 -0.000003 -0.000002 0.000000 -6.914882 -0.000003 0.000004 0.000017 -0.000009 -35.413725 -6.096213 0.000008 0.000010 -0.000078 -0.000093 0.000010 -1.749944 0.000004 -0.000008 -0.000002 -0.000003 -0.000007 -0.699987 -1.166635 -0.466629 -0.000003 -0.000002 -0.000008 0.788266 -1.313798 4.256740 -117.907056 -41.922810 47.343685 3.915167 -0.000013 0.000008 -0.000000 0.000000 0.000000 6.914906 0.000007 -0.000011 0.000012 0.000003 36.806305 6.096232 0.000005 0.000002 -0.000058 0.000080 -0.000026 1.749929 0.000021 -0.000004 -0.000004 -0.000001 -0.000001 0.699982 -1.166620 -0.466665 0.000004 0.000000 -0.000012 -2.338576 -0.252553 -0.551497 0.377286 -1.862950 0.017677 0.000004 0.000003 -10.744965 7.861674 0.635276 0.167524 0.000009 0.000017 -10.930863 -0.000012 -0.000004 -0.000000 0.000005 -4.087269 -1.487645 0.000002 -0.000001 -0.000003 2.338572 -0.252555 -0.551443 0.371249 -8.111859 0.022498 -0.000008 -0.000011 -10.744945 8.993623 3.189158 -0.789416 0.000001 0.000009 -10.930857 -0.000003 -0.000001 0.000002 0.000001 -4.087245 -1.487652 -0.000001 -0.000000 0.000001 
0.000176 26.530121 40.545143 -1.035499 -0.963754 46.906099 0.000002 0.900097 1.860688 28.141126 10.616435 1.236974 -0.000013 0.400317 2.270323 -0.000005 -0.000000 0.000001 0.000014 0.200936 2.296572 0.000002 -0.000001 -0.000000 0.000012 -0.000015 2.305322 -0.000016 0.000002 -2.130876 -0.000006 -0.864452 6.051494 1.540413 -9.377246 152.718508 -0.000003 -0.550424 3.121696 0.000002 -0.000000 -0.000000 -0.788281 -1.313758 4.256761 -93.474656 34.564384 -53.447910 -3.915119 -0.000006 -0.000000 -0.000000 -0.000003 -0.000002 -6.914887 0.000005 -0.000000 0.000015 -0.000011 -37.380300 -6.096212 0.000010 0.000009 -0.000075 -0.000091 0.000015 -1.749942 0.000004 -0.000012 0.000001 -0.000002 -0.000002 -0.699985 -1.166637 -0.466629 -0.000000 -0.000002 -0.000008 0.788268 -1.313801 4.256734 -113.345562 -41.718362 47.458159 3.915169 -0.000014 0.000015 0.000000 -0.000000 0.000003 6.914904 -0.000001 -0.000015 0.000012 0.000004 40.316985 6.096239 0.000008 0.000003 -0.000065 0.000079 -0.000027 1.749929 0.000018 0.000004 -0.000002 -0.000001 -0.000002 0.699980 -1.166619 -0.466661 0.000009 -0.000000 -0.000008 -2.338575 -0.252551 -0.551500 -0.278188 -1.006199 -0.015550 0.000003 -0.000001 -10.744969 7.610081 0.687377 0.207494 0.000010 0.000017 -10.930862 -0.000014 -0.000006 -0.000001 0.000006 -4.087266 -1.487646 0.000001 0.000000 0.000003 2.338572 -0.252556 -0.551449 0.096061 -7.391674 0.007323 -0.000007 -0.000012 -10.744934 9.181890 3.046310 -0.773164 -0.000000 0.000007 -10.930856 -0.000003 -0.000000 -0.000000 -0.000002 -4.087243 -1.487648 -0.000004 -0.000000 -0.000003 
0.000169 26.530134 40.545166 -0.699025 -0.729870 48.162181 0.000004 0.900102 1.860680 28.063973 10.899716 1.136370 -0.000014 0.400321 2.270321 -0.000008 -0.000001 0.000004 0.000013 0.200942 2.296570 -0.000002 -0.000002 -0.000001 0.000010 -0.000014 2.305326 -0.000018 0.000002 -1.805701 -0.000004 -0.864446 6.051502 2.818002 -10.071226 152.871163 0.000000 -0.550423 3.121700 0.000001 -0.000001 -0.000003 -0.788281 -1.313752 4.256768 -91.632718 34.677448 -53.756638 -3.915120 0.000006 0.000004 -0.000003 -0.000001 -0.000000 -6.914884 0.000012 -0.000003 0.000013 -0.000012 -38.518821 -6.096215 0.000006 0.000003 -0.000077 -0.000093 0.000015 -1.749950 0.000004 -0.000008 0.000003 0.000001 0.000001 -0.699992 -1.166636 -0.466625 -0.000003 -0.000001 -0.000001 0.788268 -1.313792 4.256742 -108.716469 -41.631905 47.658437 3.915161 -0.000015 0.000011 0.000000 -0.000001 0.000002 6.914896 -0.000003 -0.000015 0.000011 0.000008 43.594854 6.096239 0.000004 0.000002 -0.000061 0.000079 -0.000026 1.749930 0.000021 -0.000003 -0.000002 -0.000002 0.000000 0.699983 -1.166619 -0.466668 0.000005 0.000001 -0.000011 -2.338576 -0.252551 -0.551507 -0.700926 -0.380427 -0.031748 0.000003 0.000000 -10.744965 7.559986 -0.002449 0.261739 0.000006 0.000017 -10.930863 -0.000014 -0.000006 -0.000001 0.000010 -4.087265 -1.487643 0.000002 0.000000 0.000000 2.338574 -0.252553 -0.551456 0.068818 -6.695329 0.005578 -0.000008 -0.000013 -10.744938 8.601594 2.366396 -0.651246 0.000001 0.000005 -10.930859 -0.000005 -0.000002 0.000000 -0.000001 -4.087244 -1.487649 -0.000003 0.000001 0.000006 
0.000166 26.530155 40.545193 -0.727619 -0.587044 49.319006 0.000001 0.900102 1.860691 28.324822 11.441685 1.162995 -0.000010 0.400320 2.270323 -0.000005 -0.000001 -0.000002 0.000016 0.200936 2.296560 0.000006 0.000003 0.000001 0.000012 -0.000018 2.305318 -0.000017 0.000000 -1.488926 -0.000006 -0.864449 6.051501 3.563322 -11.181559 151.330450 -0.000003 -0.550418 3.121689 0.000001 -0.000002 -0.000004 -0.788280 -1.313753 4.256765 -91.540668 36.362766 -54.245496 -3.915119 -0.000006 0.000011 -0.000001 -0.000000 0.000001 -6.914881 0.000006 0.000004 0.000016 -0.000011 -39.439916 -6.096214 0.000004 0.000010 -0.000074 -0.000095 0.000007 -1.749944 0.000007 -0.000005 -0.000001 -0.000002 0.000001 -0.699986 -1.166631 -0.466626 -0.000007 0.000000 -0.000003 0.788265 -1.313795 4.256739 -113.844931 -49.069366 40.611164 3.915164 -0.000011 0.000011 0.000001 0.000000 -0.000002 6.914896 -0.000000 -0.000016 0.000008 0.000014 48.758091 6.096230 0.000007 0.000003 -0.000062 0.000079 -0.000030 1.749922 0.000017 0.000000 -0.000004 -0.000003 -0.000002 0.699976 -1.166625 -0.466665 0.000002 -0.000000 -0.000009 -2.338579 -0.252551 -0.551499 -0.699797 -0.264636 -0.031926 0.000005 0.000002 -10.744969 7.614060 -0.556599 0.282820 0.000002 0.000015 -10.930859 -0.000014 -0.000004 0.000001 0.000007 -4.087266 -1.487645 0.000006 -0.000001 -0.000002 2.338569 -0.252554 -0.551448 0.452754 -6.255289 0.021357 -0.000007 -0.000013 -10.744940 7.491866 1.704073 -0.506803 0.000001 0.000010 -10.930855 -0.000005 -0.000000 0.000002 -0.000001 -4.087246 -1.487649 0.000001 -0.000000 -0.000000 
0.000171 26.530153 40.545200 -0.615579 -0.769809 50.998048 -0.000001 0.900099 1.860692 29.134271 11.060402 1.067129 -0.000009 0.400315 2.270306 -0.000004 -0.000002 -0.000004 0.000013 0.200939 2.296564 0.000003 -0.000000 -0.000002 0.000013 -0.000015 2.305326 -0.000017 -0.000001 -1.553633 -0.000005 -0.864453 6.051506 3.493053 -11.018442 152.085049 -0.000003 -0.550417 3.121696 0.000001 0.000002 -0.000004 -0.788282 -1.313756 4.256763 -91.651064 36.727502 -53.733098 -3.915119 -0.000004 -0.000000 -0.000002 -0.000001 0.000000 -6.914885 0.000004 0.000004 0.000014 -0.000012 -41.397432 -6.096216 0.000007 0.000006 -0.000075 -0.000088 0.000020 -1.749942 0.000002 -0.000004 0.000001 0.000001 0.000004 -0.699986 -1.166639 -0.466629 -0.000002 0.000002 -0.000002 0.788261 -1.313799 4.256742 -114.932973 -49.794893 40.150796 3.915159 -0.000011 0.000008 -0.000001 -0.000003 -0.000004 6.914896 -0.000002 -0.000012 0.000008 0.000015 49.935650 6.096227 0.000006 0.000003 -0.000060 0.000079 -0.000031 1.749925 0.000024 0.000000 0.000000 -0.000001 -0.000005 0.699976 -1.166617 -0.466665 0.000007 0.000002 -0.000013 -2.338579 -0.252555 -0.551502 -0.661595 -0.091533 -0.027653 0.000005 -0.000005 -10.744968 7.736703 -0.516926 0.277439 0.000008 0.000016 -10.930862 -0.000014 -0.000004 -0.000003 0.000005 -4.087265 -1.487646 0.000001 -0.000000 -0.000003 2.338570 -0.252556 -0.551448 0.891504 -5.871838 0.035828 -0.000007 -0.000012 -10.744938 6.468155 1.569501 -0.422525 -0.000000 0.000008 -10.930853 -0.000003 -0.000001 0.000003 0.000002 -4.087245 -1.487652 -0.000002 0.000002 0.000000 
